<svg width="761" height="739" viewBox="0 0 761 739" fill="none" xmlns="http://www.w3.org/2000/svg">
<path d="M335.502 9.26296C332.569 9.32349 329.675 9.96188 326.986 11.1417C324.298 12.3215 321.867 14.0195 319.832 16.1389C317.797 18.2582 316.199 20.7573 315.128 23.4933C314.058 26.2294 313.536 29.1488 313.592 32.0847L313.708 38.1765L307.622 38.3035C301.699 38.4272 296.063 40.901 291.954 45.181C287.845 49.4609 285.6 55.1962 285.713 61.1253C285.825 67.0544 288.287 72.6916 292.555 76.7967C296.823 80.9018 302.549 83.1385 308.472 83.0149L314.558 82.8879L359.227 81.9557L358.377 37.2443L358.262 31.1526C358.206 28.2166 357.574 25.3212 356.4 22.632C355.226 19.9428 353.534 17.5124 351.421 15.4796C349.307 13.4469 346.814 11.8516 344.082 10.7849C341.351 9.71822 338.435 9.20106 335.502 9.26296Z" fill="#E3ECF7"/>
<path d="M230.302 242.516C229.463 239.992 228.135 237.658 226.394 235.646C224.652 233.633 222.532 231.983 220.154 230.788C217.776 229.593 215.186 228.877 212.534 228.682C209.881 228.487 207.217 228.815 204.694 229.649L199.459 231.378L197.716 226.143C196.02 221.048 192.369 216.83 187.567 214.417C182.764 212.004 177.203 211.594 172.108 213.276C167.012 214.959 162.799 218.597 160.396 223.39C157.992 228.183 157.594 233.738 159.291 238.833L161.033 244.068L173.824 282.491L212.25 269.801L217.485 268.072C220.008 267.24 222.342 265.918 224.352 264.183C226.362 262.448 228.009 260.333 229.199 257.96C230.389 255.586 231.1 253.001 231.289 250.351C231.478 247.701 231.143 245.039 230.302 242.516Z" fill="#E3ECF7"/>
<path d="M247.06 443.917C244.893 443.073 242.584 442.665 240.266 442.718C237.949 442.771 235.667 443.283 233.552 444.226C231.436 445.168 229.529 446.522 227.938 448.211C226.348 449.899 225.105 451.889 224.282 454.066L222.573 458.583L218.075 456.832C213.698 455.127 208.839 455.239 204.567 457.142C200.295 459.045 196.961 462.584 195.297 466.981C193.633 471.377 193.776 476.271 195.695 480.585C197.614 484.899 201.151 488.28 205.528 489.985L210.025 491.737L243.035 504.592L255.582 471.439L257.291 466.922C258.116 464.745 258.505 462.423 258.437 460.088C258.369 457.754 257.845 455.453 256.895 453.317C255.945 451.18 254.587 449.251 252.9 447.638C251.212 446.025 249.228 444.761 247.06 443.917Z" fill="#E3ECF7"/>
<path d="M585.202 131.997C582.685 130.757 579.951 130.026 577.156 129.846C574.36 129.667 571.558 130.042 568.91 130.95C566.262 131.859 563.82 133.283 561.722 135.141C559.625 136.999 557.913 139.255 556.686 141.78L554.138 147.018L548.915 144.446C543.832 141.942 537.972 141.566 532.624 143.401C527.277 145.236 522.879 149.131 520.399 154.229C517.919 159.327 517.56 165.212 519.401 170.587C521.242 175.962 525.132 180.389 530.215 182.893L535.438 185.465L573.77 204.345L592.47 165.899L595.018 160.66C596.246 158.136 596.967 155.392 597.139 152.585C597.31 149.778 596.929 146.964 596.018 144.302C595.106 141.64 593.682 139.183 591.826 137.072C589.97 134.961 587.719 133.236 585.202 131.997Z" fill="#E3ECF7"/>
<path d="M81.2466 577.798C79.7291 576.533 77.9789 575.581 76.096 574.996C74.2131 574.411 72.2344 574.205 70.2729 574.389C68.3114 574.573 66.4056 575.144 64.6643 576.07C62.923 576.995 61.3804 578.256 60.1246 579.782L57.5182 582.947L54.369 580.323C51.3038 577.769 47.3565 576.543 43.3954 576.915C39.4342 577.287 35.7837 579.227 33.2469 582.307C30.7101 585.387 29.4949 589.356 29.8684 593.34C30.242 597.323 32.1739 600.996 35.239 603.55L38.3882 606.174L61.5023 625.433L80.6322 602.205L83.2386 599.041C84.4952 597.516 85.4404 595.757 86.0203 593.864C86.6003 591.971 86.8036 589.981 86.6186 588.008C86.4336 586.035 85.8639 584.118 84.9422 582.366C84.0205 580.614 82.7647 579.062 81.2466 577.798Z" fill="#E3ECF7"/>
<path d="M578.134 348.072C575.277 347.13 572.264 346.761 569.265 346.986C566.266 347.211 563.342 348.025 560.659 349.382C557.976 350.74 555.586 352.613 553.627 354.896C551.668 357.179 550.177 359.827 549.24 362.688L547.295 368.624L541.367 366.671C535.597 364.77 529.311 365.242 523.892 367.984C518.473 370.725 514.366 375.51 512.472 381.287C510.579 387.065 511.056 393.36 513.797 398.79C516.539 404.219 521.32 408.337 527.09 410.237L533.019 412.19L576.531 426.524L590.807 382.957L592.752 377.022C593.691 374.161 594.057 371.143 593.83 368.14C593.603 365.136 592.787 362.207 591.43 359.519C590.072 356.83 588.199 354.435 585.918 352.471C583.637 350.507 580.992 349.012 578.134 348.072Z" fill="#E3ECF7"/>
<path d="M744.821 521.309C743.775 518.703 742.228 516.331 740.268 514.329C738.307 512.326 735.972 510.733 733.395 509.639C730.818 508.545 728.049 507.972 725.248 507.953C722.447 507.934 719.668 508.469 717.07 509.528L711.679 511.723L709.508 506.317C707.396 501.056 703.286 496.859 698.081 494.649C692.877 492.44 687.005 492.399 681.758 494.536C676.51 496.673 672.317 500.813 670.1 506.044C667.883 511.276 667.824 517.171 669.937 522.432L672.107 527.838L688.036 567.516L727.608 551.4L732.999 549.205C735.598 548.147 737.965 546.586 739.966 544.612C741.967 542.638 743.561 540.288 744.659 537.697C745.757 535.107 746.336 532.326 746.364 529.514C746.392 526.702 745.867 523.914 744.821 521.309Z" fill="#E3ECF7"/>
<path d="M663.555 361.566C663.556 359.941 663.236 358.332 662.615 356.83C661.994 355.328 661.083 353.964 659.935 352.815C658.787 351.665 657.424 350.754 655.924 350.132C654.423 349.511 652.815 349.191 651.191 349.191L647.822 349.192L647.822 345.819C647.823 342.537 646.52 339.389 644.201 337.068C641.883 334.747 638.738 333.444 635.458 333.444C632.179 333.444 629.034 334.748 626.715 337.07C624.396 339.391 623.093 342.539 623.093 345.821L623.092 349.193L623.091 373.946L647.82 373.944L651.19 373.943C652.813 373.944 654.421 373.624 655.922 373.002C657.422 372.38 658.786 371.468 659.934 370.319C661.082 369.169 661.993 367.805 662.614 366.303C663.236 364.801 663.556 363.192 663.555 361.566Z" fill="#E3ECF7"/>
<path d="M621.575 537.371C621.623 535.746 621.35 534.128 620.773 532.609C620.196 531.09 619.325 529.699 618.211 528.517C617.097 527.335 615.761 526.384 614.279 525.719C612.798 525.054 611.2 524.688 609.577 524.641L606.209 524.543L606.307 521.172C606.403 517.891 605.193 514.707 602.943 512.319C600.693 509.932 597.587 508.537 594.309 508.442C591.031 508.347 587.849 509.559 585.464 511.811C583.078 514.064 581.684 517.172 581.588 520.453L581.489 523.824L580.766 548.566L605.486 549.284L608.854 549.382C610.477 549.43 612.093 549.157 613.611 548.579C615.129 548.001 616.518 547.129 617.7 546.014C618.881 544.898 619.831 543.561 620.496 542.078C621.161 540.595 621.528 538.995 621.575 537.371Z" fill="#E3ECF7"/>
<path d="M576.641 626.205C577.909 626.458 579.209 626.457 580.466 626.202C581.723 625.948 582.913 625.445 583.969 624.722C585.024 624 585.923 623.071 586.615 621.991C587.307 620.91 587.779 619.697 588.003 618.423L588.468 615.779L591.099 616.302C593.659 616.812 596.295 616.278 598.425 614.819C600.556 613.359 602.007 611.094 602.46 608.52C602.913 605.947 602.33 603.276 600.839 601.096C599.349 598.916 597.073 597.405 594.512 596.896L591.881 596.372L572.572 592.53L569.158 611.936L568.693 614.581C568.469 615.855 568.496 617.166 568.774 618.44C569.052 619.714 569.575 620.926 570.313 622.005C571.052 623.085 571.99 624.011 573.076 624.732C574.162 625.453 575.373 625.953 576.641 626.205Z" fill="#E3ECF7"/>
<path d="M731.498 634.242C733.149 633.936 734.728 633.307 736.147 632.391C737.565 631.474 738.795 630.288 739.766 628.9C740.737 627.513 741.429 625.95 741.804 624.303C742.18 622.655 742.23 620.954 741.952 619.297L741.376 615.86L744.8 615.225C748.133 614.607 751.107 612.686 753.067 609.883C755.027 607.081 755.814 603.627 755.254 600.281C754.694 596.935 752.833 593.972 750.08 592.043C747.328 590.114 743.909 589.378 740.577 589.996L737.153 590.63L712.022 595.289L716.246 620.519L716.821 623.956C717.098 625.613 717.697 627.193 718.585 628.607C719.473 630.021 720.631 631.24 721.994 632.195C723.357 633.15 724.898 633.823 726.529 634.174C728.16 634.525 729.848 634.548 731.498 634.242Z" fill="#E3ECF7"/>
<path d="M653.052 223.409C654.073 221.983 654.805 220.368 655.207 218.654C655.609 216.94 655.672 215.163 655.394 213.422C655.115 211.681 654.501 210.012 653.584 208.51C652.668 207.007 651.469 205.701 650.054 204.665L647.12 202.516L649.237 199.558C651.298 196.678 652.14 193.086 651.578 189.571C651.016 186.056 649.096 182.906 646.24 180.814C643.384 178.723 639.826 177.86 636.349 178.417C632.872 178.975 629.761 180.905 627.7 183.785L625.583 186.743L610.041 208.457L631.578 224.23L634.512 226.379C635.926 227.416 637.527 228.161 639.225 228.572C640.922 228.984 642.681 229.053 644.403 228.778C646.125 228.502 647.775 227.886 649.259 226.964C650.743 226.043 652.031 224.835 653.052 223.409Z" fill="#E3ECF7"/>
<path d="M107.733 302.235C106.716 303.664 105.989 305.282 105.592 306.996C105.195 308.711 105.136 310.489 105.42 312.229C105.703 313.969 106.323 315.636 107.243 317.136C108.164 318.636 109.367 319.939 110.784 320.97L113.725 323.111L111.616 326.075C109.563 328.961 108.731 332.556 109.304 336.069C109.876 339.583 111.805 342.727 114.667 344.81C117.529 346.894 121.089 347.746 124.564 347.179C128.04 346.612 131.145 344.672 133.198 341.787L135.307 338.822L150.787 317.064L129.205 301.352L126.264 299.212C124.847 298.18 123.244 297.439 121.546 297.033C119.847 296.626 118.088 296.561 116.367 296.842C114.646 297.123 112.998 297.744 111.516 298.669C110.035 299.594 108.749 300.806 107.733 302.235Z" fill="#E3ECF7"/>
<path d="M588.231 265.943C589.425 266.383 590.697 266.584 591.973 266.534C593.249 266.484 594.504 266.185 595.667 265.653C596.83 265.121 597.878 264.368 598.751 263.435C599.624 262.502 600.305 261.408 600.755 260.216L601.688 257.744L604.167 258.656C606.58 259.544 609.255 259.439 611.604 258.365C613.952 257.291 615.782 255.336 616.691 252.929C617.6 250.523 617.513 247.862 616.45 245.532C615.387 243.202 613.434 241.395 611.021 240.507L608.543 239.594L590.349 232.899L583.495 251.048L582.561 253.52C582.11 254.712 581.9 255.979 581.941 257.248C581.982 258.517 582.274 259.764 582.801 260.918C583.327 262.072 584.078 263.109 585.01 263.971C585.941 264.834 587.036 265.503 588.231 265.943Z" fill="#E3ECF7"/>
<path d="M450.584 99.5229C451.124 97.7763 451.315 95.9388 451.146 94.1156C450.978 92.2923 450.453 90.5189 449.602 88.8968C448.751 87.2746 447.59 85.8354 446.186 84.6614C444.782 83.4875 443.163 82.6017 441.42 82.0548L437.804 80.9191L438.923 77.2948C440.011 73.7673 439.658 69.9452 437.939 66.6693C436.22 63.3934 433.277 60.9321 429.758 59.8267C426.239 58.7214 422.431 59.0625 419.172 60.7752C415.914 62.4879 413.471 65.4318 412.382 68.9593L411.264 72.5836L403.053 99.1843L429.593 107.52L433.209 108.655C434.952 109.203 436.783 109.402 438.6 109.239C440.416 109.076 442.182 108.556 443.795 107.708C445.409 106.86 446.839 105.701 448.004 104.296C449.169 102.892 450.046 101.27 450.584 99.5229Z" fill="#E3ECF7"/>
<path d="M82.864 237.426C81.2677 238.315 79.8605 239.51 78.723 240.944C77.5854 242.378 76.7398 244.022 76.2343 245.783C75.7289 247.543 75.5735 249.386 75.7772 251.206C75.9808 253.025 76.5395 254.786 77.4212 256.387L79.2499 259.709L75.9381 261.554C72.7147 263.348 70.3304 266.354 69.3097 269.91C68.2889 273.466 68.7154 277.28 70.4953 280.514C72.2752 283.748 75.2626 286.136 78.8005 287.153C82.3383 288.171 86.1367 287.734 89.3601 285.939L92.6719 284.095L116.98 270.56L103.558 246.174L101.729 242.852C100.848 241.25 99.661 239.839 98.236 238.7C96.8111 237.56 95.1759 236.715 93.4241 236.211C91.6722 235.707 89.8379 235.555 88.026 235.764C86.2141 235.972 84.46 236.537 82.864 237.426Z" fill="#E3ECF7"/>
<path d="M5.76286 656.837C5.76692 658.666 6.13082 660.477 6.83377 662.168C7.53671 663.859 8.56492 665.396 9.85966 666.692C11.1544 667.988 12.6903 669.017 14.3796 669.72C16.0689 670.424 17.8785 670.788 19.7051 670.792L23.4949 670.802L23.5043 674.595C23.5133 678.287 24.9873 681.831 27.602 684.448C30.2167 687.065 33.7579 688.541 37.4465 688.55C41.1351 688.559 44.6691 687.101 47.2709 684.497C49.8728 681.893 51.3294 678.355 51.3203 674.663L51.311 670.87L51.2425 643.029L23.4265 642.96L19.6366 642.951C17.8101 642.946 16.0023 643.301 14.3164 643.997C12.6305 644.692 11.0996 645.714 9.81126 647.003C8.52288 648.293 7.50221 649.825 6.80757 651.512C6.11294 653.2 5.75794 655.009 5.76286 656.837Z" fill="#E3ECF7"/>
<path d="M320.517 110.212C320.063 111.442 319.855 112.75 319.905 114.062C319.954 115.374 320.261 116.664 320.808 117.858C321.355 119.053 322.13 120.128 323.09 121.023C324.05 121.917 325.176 122.614 326.403 123.073L328.949 124.025L328.007 126.577C327.09 129.061 327.195 131.811 328.299 134.223C329.402 136.635 331.415 138.51 333.893 139.437C336.371 140.365 339.111 140.267 341.512 139.166C343.913 138.066 345.776 136.052 346.693 133.568L347.635 131.017L354.55 112.287L335.864 105.296L333.318 104.343C332.091 103.884 330.786 103.671 329.479 103.717C328.171 103.764 326.887 104.068 325.698 104.613C324.509 105.158 323.44 105.933 322.551 106.894C321.662 107.855 320.971 108.982 320.517 110.212Z" fill="#E3ECF7"/>
<path d="M156.313 363.933C156.807 365.147 157.536 366.253 158.458 367.188C159.38 368.123 160.476 368.868 161.686 369.381C162.895 369.894 164.192 370.165 165.505 370.178C166.817 370.191 168.118 369.946 169.333 369.457L171.855 368.443L172.881 370.962C173.879 373.414 175.812 375.374 178.254 376.41C180.695 377.446 183.446 377.473 185.901 376.486C188.356 375.499 190.313 373.579 191.343 371.147C192.373 368.715 192.391 365.971 191.393 363.519L190.367 361L182.839 342.509L164.327 349.952L161.805 350.966C160.589 351.454 159.483 352.177 158.549 353.093C157.615 354.009 156.872 355.101 156.362 356.305C155.852 357.509 155.585 358.802 155.577 360.111C155.568 361.42 155.819 362.719 156.313 363.933Z" fill="#E3ECF7"/>
<path d="M16.1247 497.035C16.8034 498.157 17.6969 499.135 18.7541 499.913C19.8114 500.691 21.0116 501.255 22.2863 501.571C23.5611 501.888 24.8853 501.951 26.1833 501.757C27.4814 501.564 28.7278 501.117 29.8514 500.443L32.1831 499.045L33.5918 501.372C34.963 503.636 37.1795 505.267 39.7537 505.906C42.328 506.545 45.0491 506.14 47.3185 504.779C49.588 503.419 51.2198 501.214 51.855 498.651C52.4902 496.087 52.0767 493.375 50.7056 491.111L49.2969 488.784L38.9572 471.708L21.8435 481.969L19.5118 483.367C18.3878 484.04 17.4086 484.928 16.6301 485.98C15.8516 487.031 15.289 488.226 14.9744 489.495C14.6599 490.765 14.5996 492.084 14.7969 493.378C14.9943 494.671 15.4455 495.914 16.1247 497.035Z" fill="#E3ECF7"/>
<path d="M74.6508 691.038C75.8898 691.464 77.2017 691.642 78.5114 691.561C79.8212 691.48 81.1032 691.143 82.2842 690.568C83.4652 689.993 84.5221 689.193 85.3944 688.211C86.2668 687.23 86.9375 686.088 87.3682 684.85L88.2626 682.281L90.8337 683.163C93.336 684.022 96.0817 683.853 98.4667 682.692C100.852 681.532 102.681 679.475 103.551 676.974C104.422 674.474 104.262 671.735 103.109 669.359C101.955 666.984 99.9006 665.167 97.3983 664.308L94.8273 663.425L75.957 656.947L69.3923 675.803L68.4979 678.372C68.0666 679.61 67.8836 680.919 67.9594 682.226C68.0351 683.533 68.3682 684.811 68.9396 685.987C69.511 687.163 70.3095 688.215 71.2894 689.082C72.2693 689.948 73.4116 690.613 74.6508 691.038Z" fill="#E3ECF7"/>
<path fill-rule="evenodd" clip-rule="evenodd" d="M305.406 738.206C331.693 611.036 259.768 602.996 220.52 614.873C106.608 676.265 56.2244 647.762 45.2717 625.836C62.614 637.712 110.442 652.147 163.016 614.873C215.591 577.599 261.593 575.589 278.023 579.243C248.14 544.731 229.836 541.123 195.57 534.368C189.018 533.076 181.881 531.67 173.969 529.91C53.4861 511.682 8.76152 421.821 1.45972 379.169C31.5803 477.836 190.399 510.725 242.426 513.465C284.047 515.658 327.312 552.749 343.741 571.021C390.292 464.132 360.17 376.428 258.855 362.725C177.358 351.701 142.952 291.293 135.907 257.214C138.306 264.347 156.137 284.389 173.969 299.687C193.137 316.132 231.473 327.095 291.714 335.317C339.908 348.473 372.037 380.996 382.077 395.613C388.466 371.86 396.315 301.88 376.6 211.984C353.449 106.422 370.062 83.8621 375.667 76.2511C376.028 75.7601 376.344 75.3311 376.6 74.9471C382.077 66.7251 397.593 45.7121 406.721 39.3171C401.245 51.1941 389.744 79.8801 387.553 99.6131C385.363 119.347 392.117 155.342 395.768 170.873C397.959 188.413 416.761 236.65 425.889 258.576C447.795 239.391 472.439 233.91 535.419 225.687C585.151 219.195 603.402 197.926 606.5 187.713C595.416 225.857 559.903 250.354 513.513 250.354C476.273 250.354 459.661 272.28 456.01 283.243C447.795 288.725 442.318 354.502 442.318 401.095C442.318 438.369 427.714 524.428 420.412 562.799C428.627 540.873 460.939 492.636 524.466 475.095C587.994 457.554 609.352 398.354 612.09 370.947C612.09 401.095 601.137 461.391 554.587 488.799C517.347 510.725 493.432 538.132 486.13 549.095C499.822 543.613 540.896 538.68 595.661 562.799C688.443 588.801 735.378 572.062 753.11 555.228C711.401 604.42 648.564 595.853 577.566 586.174C558.544 583.58 538.935 580.907 518.989 579.243C440.127 572.665 416.761 682.477 414.936 738.206H305.406Z" fill="#E3ECF7"/>
</svg>
