<svg width="850" height="850" viewBox="0 0 850 850" fill="none" xmlns="http://www.w3.org/2000/svg">
<path d="M0 331.053L425 0L850 331.053V850H0V331.053Z" fill="white"/>
<path fill-rule="evenodd" clip-rule="evenodd" d="M14 834H345.41C371.923 706.048 299.38 697.958 259.796 709.909C144.907 771.678 94.0907 743 83.0437 720.938C100.535 732.888 148.773 747.411 201.799 709.909C254.823 672.405 301.222 670.383 317.793 674.06C287.652 639.337 269.19 635.705 234.632 628.909C228.022 627.61 220.825 626.194 212.845 624.423C91.3288 606.084 46.2204 515.67 38.8557 472.757C69.235 572.029 229.416 605.12 281.889 607.878C323.868 610.085 367.503 647.403 384.074 665.788C431.024 558.241 400.644 470 298.461 456.212C216.265 445.121 181.562 384.342 174.456 350.053C176.876 357.23 194.861 377.395 212.845 392.788C232.177 409.332 270.842 420.363 331.601 428.635C380.208 441.873 412.611 474.595 422.739 489.303C429.182 465.403 437.099 394.994 417.215 304.544C393.865 198.336 410.62 175.637 416.274 167.979C416.639 167.485 416.956 167.054 417.215 166.667C422.739 158.394 438.389 137.252 447.593 130.818C442.071 142.768 430.471 171.63 428.261 191.485C426.053 211.34 432.865 247.555 436.548 263.181C438.756 280.83 457.721 329.363 466.926 351.425C489.021 332.122 513.877 326.606 577.396 318.334C627.555 311.8 645.962 290.402 649.086 280.125C637.907 318.503 602.091 343.151 555.302 343.151C517.742 343.151 500.988 365.212 497.305 376.241C489.021 381.757 483.497 447.938 483.497 494.819C483.497 532.32 468.767 618.909 461.402 657.515C469.688 635.454 502.276 586.921 566.35 569.272C630.422 551.624 651.964 492.06 654.725 464.485C654.725 494.819 643.677 555.485 596.728 583.06C559.169 605.12 535.048 632.697 527.685 643.726C541.494 638.212 582.919 633.247 638.155 657.515C731.733 683.677 779.071 666.835 796.954 649.897C754.888 699.392 691.511 690.772 619.905 681.033C600.719 678.424 580.941 675.734 560.826 674.06C481.287 667.442 457.721 777.929 455.88 834H837V337.635L425.5 15L14 337.635V834ZM367.728 102.681C370.432 101.499 373.344 100.86 376.295 100.802C379.248 100.743 382.182 101.265 384.932 102.338C387.682 103.411 390.193 105.015 392.323 107.058C394.452 109.1 396.157 111.542 397.341 114.243C398.523 116.944 399.164 119.851 399.221 122.798L399.343 128.914L400.241 173.801L355.286 174.696L349.16 174.818C343.198 174.937 337.434 172.686 333.134 168.561C328.835 164.436 326.353 158.774 326.235 152.822C326.116 146.87 328.37 141.114 332.501 136.821C336.632 132.528 342.302 130.05 348.264 129.931L354.388 129.809L354.266 123.693C354.207 120.746 354.729 117.815 355.804 115.07C356.879 112.324 358.487 109.817 360.532 107.691C362.578 105.565 365.023 103.863 367.728 102.681ZM269.528 334.658C268.687 332.127 267.356 329.786 265.61 327.767C263.864 325.75 261.736 324.095 259.349 322.9C256.962 321.703 254.363 320.989 251.699 320.796C249.035 320.602 246.36 320.936 243.825 321.776L238.566 323.516L236.821 318.265C235.124 313.154 231.464 308.925 226.642 306.509C221.823 304.093 216.239 303.688 211.12 305.383C206 307.077 201.766 310.732 199.347 315.546C196.927 320.358 196.52 325.934 198.217 331.045L199.962 336.298L212.761 374.842L251.365 362.062L256.624 360.32C259.161 359.482 261.506 358.154 263.526 356.41C265.546 354.666 267.203 352.542 268.4 350.158C269.599 347.775 270.314 345.179 270.508 342.52C270.701 339.86 270.369 337.189 269.528 334.658ZM279.811 536.324C282.148 536.262 284.473 536.663 286.656 537.499C288.838 538.335 290.835 539.592 292.532 541.2C294.227 542.807 295.59 544.731 296.541 546.864C297.492 548.996 298.012 551.296 298.072 553.628C298.134 555.962 297.732 558.285 296.895 560.464L295.156 564.985L282.395 598.172L249.157 585.43L244.628 583.696C240.221 582.005 236.666 578.636 234.746 574.33C232.825 570.023 232.697 565.131 234.391 560.73C236.082 556.33 239.456 552.781 243.768 550.862C248.082 548.945 252.982 548.818 257.389 550.507L261.918 552.243L263.657 547.723C264.495 545.542 265.754 543.55 267.362 541.855C268.971 540.163 270.9 538.802 273.035 537.852C275.17 536.903 277.473 536.384 279.811 536.324ZM627.63 223.406C625.089 222.165 622.33 221.434 619.507 221.257C616.684 221.081 613.856 221.461 611.18 222.376C608.505 223.293 606.036 224.725 603.916 226.594C601.795 228.462 600.064 230.728 598.821 233.265L596.242 238.529L590.972 235.952C585.841 233.445 579.925 233.075 574.521 234.925C569.12 236.774 564.675 240.69 562.164 245.812C559.653 250.933 559.282 256.842 561.134 262.236C562.985 267.631 566.908 272.07 572.038 274.577L577.308 277.153L615.991 296.057L634.925 257.433L637.504 252.171C638.748 249.634 639.48 246.879 639.657 244.061C639.834 241.242 639.453 238.418 638.535 235.746C637.619 233.075 636.184 230.61 634.312 228.493C632.442 226.376 630.17 224.646 627.63 223.406ZM115.182 669.304C117.089 669.893 118.862 670.849 120.398 672.121C121.936 673.393 123.207 674.953 124.14 676.715C125.073 678.477 125.65 680.404 125.836 682.389C126.023 684.373 125.816 686.375 125.227 688.279C124.639 690.183 123.681 691.955 122.407 693.489L119.765 696.674L100.374 720.046L76.9661 700.684L73.7768 698.046C70.6728 695.478 68.7173 691.785 68.3406 687.778C67.9638 683.77 69.1968 679.778 71.7682 676.678C74.3396 673.579 78.0389 671.627 82.0521 671.25C86.0652 670.875 90.0636 672.107 93.1677 674.674L96.3569 677.31L98.9989 674.127C100.272 672.591 101.835 671.321 103.6 670.39C105.364 669.459 107.295 668.883 109.282 668.698C111.27 668.512 113.274 668.718 115.182 669.304ZM620.392 441.313C617.511 440.366 614.469 439.996 611.443 440.224C608.418 440.451 605.465 441.271 602.757 442.638C600.049 444.004 597.637 445.892 595.66 448.19C593.682 450.487 592.177 453.151 591.23 456.03L589.264 462.003L583.282 460.041C577.461 458.129 571.118 458.608 565.649 461.367C560.18 464.128 556.032 468.943 554.12 474.757C552.207 480.57 552.685 486.903 555.45 492.364C558.213 497.825 563.038 501.967 568.859 503.876L574.841 505.838L618.743 520.24L633.166 476.405L635.131 470.432C636.08 467.553 636.451 464.517 636.223 461.496C635.995 458.475 635.173 455.527 633.805 452.823C632.436 450.119 630.546 447.711 628.245 445.735C625.943 443.76 623.275 442.259 620.392 441.313ZM784.616 608.401C786.6 610.417 788.166 612.8 789.224 615.418C790.286 618.036 790.819 620.837 790.795 623.661C790.771 626.484 790.191 629.275 789.087 631.875C787.983 634.475 786.377 636.833 784.359 638.812C782.343 640.791 779.956 642.354 777.333 643.413L771.892 645.61L731.964 661.73L715.818 621.861L713.619 616.429C711.479 611.142 711.528 605.224 713.758 599.972C715.988 594.723 720.216 590.572 725.51 588.435C730.806 586.298 736.735 586.347 741.992 588.573C747.249 590.8 751.406 595.022 753.549 600.31L755.747 605.741L761.187 603.544C763.81 602.485 766.614 601.951 769.443 601.975C772.271 601.999 775.067 602.578 777.669 603.682C780.273 604.785 782.635 606.388 784.616 608.401ZM707.043 455.01C707.044 453.361 706.72 451.73 706.088 450.207C705.457 448.685 704.532 447.301 703.364 446.136C702.198 444.972 700.811 444.046 699.287 443.416C697.762 442.785 696.128 442.461 694.479 442.463H691.053V439.043C691.053 435.716 689.73 432.525 687.373 430.171C685.017 427.819 681.82 426.496 678.488 426.496C675.155 426.496 671.958 427.819 669.603 430.171C667.247 432.525 665.922 435.716 665.922 439.043V442.463V467.557H691.053H694.479C696.128 467.557 697.762 467.232 699.287 466.602C700.811 465.971 702.198 465.048 703.364 463.881C704.532 462.717 705.457 461.332 706.088 459.811C706.72 458.288 707.044 456.657 707.043 455.01ZM664.106 627.739C664.694 629.279 664.971 630.92 664.922 632.568C664.874 634.215 664.502 635.836 663.827 637.34C663.152 638.843 662.186 640.198 660.986 641.328C659.785 642.46 658.372 643.343 656.831 643.928C655.289 644.515 653.644 644.792 651.995 644.743L648.573 644.642L623.452 643.912L624.184 618.829L624.285 615.411C624.381 612.086 625.797 608.933 628.223 606.65C630.646 604.367 633.88 603.139 637.21 603.236C640.542 603.332 643.697 604.746 645.986 607.168C648.272 609.588 649.502 612.816 649.405 616.143L649.305 619.56L652.728 619.66C654.378 619.707 656.002 620.079 657.508 620.753C659.013 621.427 660.371 622.393 661.502 623.59C662.635 624.789 663.52 626.199 664.106 627.739ZM618.775 721.039C620.053 721.279 621.365 721.264 622.637 720.997C623.911 720.731 625.117 720.215 626.19 719.482C627.263 718.748 628.181 717.812 628.891 716.724C629.6 715.636 630.089 714.421 630.328 713.143L630.827 710.496L633.478 710.993C636.058 711.476 638.725 710.915 640.892 709.436C643.059 707.954 644.548 705.675 645.031 703.098C645.515 700.522 644.954 697.858 643.471 695.695C641.987 693.531 639.704 692.044 637.124 691.561L634.473 691.065L615.013 687.423L611.365 706.855L610.868 709.503C610.628 710.778 610.642 712.089 610.91 713.36C611.177 714.63 611.693 715.835 612.427 716.906C613.162 717.977 614.1 718.894 615.19 719.603C616.279 720.313 617.496 720.8 618.775 721.039ZM780.355 726.909C778.928 727.817 777.337 728.434 775.671 728.728C774.007 729.021 772.299 728.985 770.649 728.618C768.998 728.254 767.434 727.567 766.049 726.598C764.664 725.63 763.483 724.398 762.574 722.975C761.665 721.551 761.047 719.962 760.755 718.298L760.145 714.849L755.671 689.526L781.034 685.058L784.489 684.449C787.852 683.857 791.313 684.624 794.111 686.579C796.908 688.534 798.813 691.521 799.407 694.879C800 698.237 799.231 701.692 797.273 704.485C795.315 707.278 792.324 709.18 788.961 709.773L785.507 710.381L786.116 713.832C786.41 715.496 786.374 717.199 786.007 718.848C785.642 720.496 784.954 722.057 783.985 723.44C783.014 724.823 781.781 726.002 780.355 726.909ZM696.44 315.191C697.473 313.768 698.214 312.155 698.623 310.446C699.032 308.737 699.097 306.964 698.82 305.23C698.543 303.495 697.924 301.831 697.002 300.334C696.079 298.838 694.871 297.537 693.446 296.507L690.488 294.37L692.63 291.416C694.714 288.543 695.57 284.959 695.008 281.455C694.446 277.951 692.513 274.814 689.634 272.733C686.756 270.652 683.168 269.797 679.659 270.359C676.15 270.92 673.008 272.849 670.924 275.725L668.781 278.676L653.066 300.35L674.772 316.044L677.73 318.181C679.156 319.212 680.769 319.952 682.48 320.36C684.192 320.768 685.968 320.834 687.707 320.557C689.444 320.278 691.11 319.662 692.608 318.742C694.106 317.82 695.409 316.614 696.44 315.191ZM144.076 399.979C144.48 398.268 145.216 396.654 146.245 395.229C147.272 393.803 148.571 392.593 150.067 391.667C151.564 390.741 153.228 390.12 154.964 389.838C156.701 389.555 158.477 389.617 160.19 390.02C161.903 390.423 163.519 391.159 164.948 392.185L167.911 394.315L189.662 409.944L174.008 431.664L171.875 434.623C169.8 437.503 166.663 439.442 163.156 440.012C159.648 440.583 156.057 439.739 153.173 437.667C150.288 435.594 148.347 432.462 147.775 428.96C147.203 425.458 148.048 421.872 150.124 418.993L152.257 416.034L149.293 413.904C147.865 412.878 146.653 411.581 145.726 410.086C144.8 408.592 144.177 406.931 143.894 405.196C143.611 403.463 143.673 401.69 144.076 399.979ZM631.069 358.476C632.272 358.923 633.549 359.13 634.832 359.085C636.115 359.039 637.376 358.74 638.544 358.208C639.712 357.676 640.763 356.918 641.637 355.982C642.511 355.043 643.192 353.941 643.641 352.74L644.571 350.249L647.066 351.179C649.495 352.082 652.183 351.986 654.54 350.911C656.898 349.836 658.732 347.868 659.637 345.443C660.542 343.019 660.447 340.334 659.369 337.98C658.292 335.625 656.323 333.794 653.894 332.891L651.4 331.961L633.084 325.143L626.255 343.431L625.325 345.922C624.876 347.123 624.67 348.4 624.715 349.681C624.761 350.962 625.058 352.221 625.593 353.387C626.126 354.553 626.883 355.603 627.823 356.475C628.763 357.348 629.865 358.028 631.069 358.476ZM493.28 186.402C493.448 188.247 493.251 190.107 492.7 191.875C492.148 193.644 491.252 195.287 490.066 196.71C488.878 198.133 487.422 199.309 485.78 200.17C484.137 201.032 482.342 201.561 480.493 201.728C478.646 201.898 476.783 201.699 475.013 201.149L471.338 200.006L444.363 191.62L452.763 164.687L453.907 161.017C455.02 157.446 457.509 154.462 460.827 152.723C464.143 150.984 468.015 150.632 471.593 151.744C475.17 152.856 478.157 155.341 479.9 158.653C481.641 161.965 481.993 165.832 480.88 169.403L479.736 173.073L483.411 174.215C485.183 174.766 486.827 175.659 488.254 176.845C489.679 178.03 490.856 179.484 491.72 181.124C492.581 182.764 493.112 184.558 493.28 186.402ZM121.073 329.842C119.45 330.739 118.02 331.945 116.864 333.395C115.708 334.844 114.85 336.506 114.337 338.286C113.825 340.066 113.669 341.93 113.878 343.77C114.088 345.61 114.658 347.392 115.557 349.012L117.421 352.374L114.054 354.236C110.776 356.047 108.353 359.087 107.319 362.681C106.284 366.276 106.723 370.134 108.537 373.406C110.352 376.681 113.394 379.098 116.995 380.132C120.595 381.165 124.459 380.727 127.737 378.916L131.104 377.054L155.821 363.39L142.137 338.712L140.273 335.35C139.375 333.729 138.166 332.3 136.715 331.147C135.264 329.993 133.599 329.135 131.816 328.623C130.033 328.113 128.167 327.956 126.323 328.166C124.48 328.375 122.696 328.944 121.073 329.842ZM44.6501 756.748C43.9404 755.037 43.5754 753.202 43.5758 751.349C43.5754 749.498 43.9404 747.663 44.6501 745.952C45.36 744.241 46.4003 742.685 47.7122 741.375C49.0239 740.066 50.5813 739.026 52.2952 738.317C54.0093 737.61 55.8464 737.244 57.7015 737.246H61.5506H89.8018V765.453V769.298C89.8018 773.037 88.3134 776.625 85.6645 779.27C83.0154 781.916 79.4225 783.401 75.6761 783.401C71.9297 783.401 68.337 781.916 65.6879 779.27C63.0388 776.625 61.5506 773.037 61.5506 769.298V765.453H57.7015C55.8464 765.453 54.0093 765.089 52.2952 764.38C50.5813 763.673 49.0239 762.633 47.7122 761.325C46.4003 760.015 45.36 758.458 44.6501 756.748ZM360.974 201.521C360.523 202.763 360.321 204.088 360.377 205.418C360.434 206.748 360.751 208.056 361.308 209.27C361.864 210.483 362.649 211.577 363.622 212.49C364.593 213.401 365.729 214.113 366.967 214.583L369.536 215.562L368.6 218.143C367.691 220.656 367.81 223.444 368.934 225.893C370.058 228.343 372.094 230.255 374.594 231.208C377.093 232.159 379.852 232.075 382.264 230.973C384.675 229.868 386.542 227.839 387.45 225.326L388.387 222.744L395.25 203.8L376.399 196.618L373.832 195.639C372.594 195.167 371.279 194.945 369.963 194.985C368.647 195.025 367.355 195.327 366.162 195.873C364.967 196.419 363.894 197.199 363.005 198.168C362.114 199.137 361.425 200.276 360.974 201.521ZM197.091 460.802C196.15 459.858 195.405 458.743 194.897 457.522C194.389 456.3 194.129 454.995 194.132 453.68C194.134 452.366 194.4 451.067 194.912 449.859C195.425 448.653 196.175 447.559 197.118 446.643C198.064 445.728 199.184 445.007 200.416 444.522L202.974 443.514L221.743 436.12L229.473 454.729L230.526 457.266C231.551 459.733 231.546 462.489 230.511 464.927C229.475 467.365 227.495 469.286 225.007 470.266C222.518 471.246 219.723 471.206 217.239 470.155C214.754 469.104 212.783 467.127 211.757 464.658L210.704 462.123L208.146 463.131C206.914 463.615 205.595 463.856 204.261 463.838C202.929 463.818 201.609 463.541 200.379 463.02C199.148 462.499 198.031 461.744 197.091 460.802ZM54.0956 591.595C54.7891 592.721 55.7004 593.704 56.7778 594.488C57.8549 595.273 59.077 595.842 60.3741 596.162C61.6712 596.483 63.0178 596.551 64.3371 596.361C65.6565 596.17 66.9226 595.725 68.0631 595.053L70.4301 593.657L71.8691 595.995C73.2699 598.271 75.5285 599.914 78.1478 600.563C80.7672 601.211 83.5329 600.812 85.8366 599.455C88.1403 598.096 89.7932 595.889 90.4315 593.318C91.07 590.747 90.6417 588.025 89.241 585.749L87.8019 583.41L77.2389 566.246L59.867 576.491L57.5002 577.889C56.3593 578.561 55.3661 579.449 54.5775 580.502C53.789 581.555 53.2204 582.752 52.9042 584.024C52.5881 585.297 52.5306 586.62 52.735 587.919C52.9394 589.219 53.4018 590.467 54.0956 591.595ZM116.736 786.83C115.406 786.918 114.075 786.746 112.819 786.325C111.563 785.904 110.407 785.241 109.417 784.376C108.426 783.509 107.621 782.455 107.046 781.276C106.472 780.098 106.14 778.815 106.07 777.501C105.999 776.189 106.192 774.872 106.636 773.625L107.557 771.04L114.315 752.058L133.441 758.473L136.047 759.348C138.583 760.199 140.659 762.015 141.819 764.397C142.979 766.778 143.127 769.529 142.23 772.048C141.334 774.564 139.467 776.641 137.04 777.818C134.613 778.997 131.824 779.181 129.288 778.33L126.682 777.456L125.762 780.043C125.318 781.289 124.631 782.441 123.741 783.43C122.85 784.421 121.773 785.23 120.572 785.815C119.37 786.398 118.066 786.743 116.736 786.83Z" fill="#8DB3E0"/>
</svg>
