<svg width="40" height="40" viewBox="0 0 40 40" fill="none" xmlns="http://www.w3.org/2000/svg">
<g clip-path="url(#clip0_104_1501)">
<path d="M17.6348 0.501367C17.4807 0.504644 17.3285 0.539198 17.1872 0.603058C17.0459 0.666918 16.9181 0.758826 16.8112 0.873543C16.7042 0.988255 16.6202 1.12352 16.5639 1.27162C16.5077 1.41971 16.4802 1.57773 16.4832 1.73664L16.4893 2.06638L16.1694 2.07325C15.8581 2.07995 15.5618 2.21385 15.3458 2.44551C15.1299 2.67717 15.0119 2.98761 15.0178 3.30853C15.0237 3.62946 15.1531 3.93458 15.3774 4.15678C15.6018 4.37898 15.9027 4.50004 16.2141 4.49335L16.534 4.48648L18.8819 4.43602L18.8372 2.01592L18.8311 1.68619C18.8282 1.52727 18.795 1.37056 18.7333 1.225C18.6716 1.07944 18.5826 0.947887 18.4716 0.837857C18.3604 0.727832 18.2294 0.641483 18.0858 0.583746C17.9423 0.526009 17.789 0.498017 17.6348 0.501367Z" fill="white"/>
<path d="M12.1053 13.1267C12.0612 12.9901 11.9913 12.8638 11.8998 12.7549C11.8083 12.6459 11.6968 12.5566 11.5718 12.4919C11.4469 12.4272 11.3107 12.3885 11.1713 12.3779C11.0319 12.3674 10.8918 12.3851 10.7592 12.4303L10.4841 12.5239L10.3925 12.2405C10.3033 11.9647 10.1114 11.7364 9.859 11.6058C9.60654 11.4752 9.31424 11.453 9.04643 11.544C8.77858 11.6351 8.55713 11.8321 8.43082 12.0915C8.30446 12.3509 8.28354 12.6516 8.37274 12.9274L8.46431 13.2107L9.13663 15.2905L11.1564 14.6036L11.4316 14.51C11.5642 14.465 11.6869 14.3934 11.7925 14.2995C11.8982 14.2056 11.9847 14.0911 12.0473 13.9627C12.1098 13.8342 12.1472 13.6942 12.1571 13.5508C12.1671 13.4074 12.1495 13.2633 12.1053 13.1267Z" fill="white"/>
<path d="M12.9861 24.028C12.8722 23.9823 12.7508 23.9602 12.629 23.9631C12.5072 23.9659 12.3872 23.9937 12.2761 24.0447C12.1648 24.0957 12.0646 24.169 11.981 24.2604C11.8974 24.3518 11.8321 24.4595 11.7888 24.5773L11.699 24.8218L11.4625 24.727C11.2325 24.6347 10.9771 24.6408 10.7525 24.7438C10.528 24.8468 10.3527 25.0384 10.2653 25.2764C10.1778 25.5143 10.1853 25.7792 10.2862 26.0127C10.3871 26.2462 10.573 26.4292 10.803 26.5215L11.0394 26.6163L12.7745 27.3121L13.434 25.5177L13.5238 25.2732C13.5672 25.1553 13.5876 25.0297 13.5841 24.9033C13.5805 24.7769 13.553 24.6524 13.503 24.5368C13.4531 24.4211 13.3817 24.3167 13.293 24.2294C13.2043 24.1421 13.1 24.0737 12.9861 24.028Z" fill="white"/>
<path d="M30.7596 7.1446C30.6273 7.07748 30.4836 7.03791 30.3367 7.02817C30.1897 7.01848 30.0424 7.03878 29.9032 7.08793C29.764 7.13713 29.6357 7.21421 29.5254 7.31477C29.4152 7.41534 29.3252 7.53745 29.2607 7.67412L29.1268 7.95764L28.8522 7.81843C28.5851 7.68289 28.277 7.66254 27.9959 7.76187C27.7149 7.86119 27.4837 8.07201 27.3534 8.34795C27.223 8.6239 27.2041 8.94243 27.3009 9.23337C27.3977 9.5243 27.6021 9.76392 27.8693 9.89946L28.1439 10.0387L30.1587 11.0606L31.1416 8.97962L31.2755 8.69605C31.3401 8.55943 31.378 8.4109 31.387 8.25897C31.396 8.10703 31.376 7.95472 31.3281 7.81063C31.2801 7.66655 31.2053 7.53356 31.1077 7.41929C31.0102 7.30503 30.8919 7.21166 30.7596 7.1446Z" fill="white"/>
<path d="M4.27057 31.2746C4.19081 31.2061 4.09882 31.1546 3.99985 31.1229C3.90088 31.0913 3.79687 31.0801 3.69377 31.0901C3.59067 31.1 3.4905 31.1309 3.39897 31.1811C3.30744 31.2311 3.22636 31.2994 3.16035 31.382L3.02335 31.5533L2.85782 31.4113C2.69671 31.273 2.48923 31.2067 2.28102 31.2268C2.07281 31.2469 1.88094 31.3519 1.7476 31.5187C1.61425 31.6854 1.55038 31.9002 1.57001 32.1158C1.58965 32.3314 1.6912 32.5302 1.8523 32.6685L2.01783 32.8105L3.23277 33.8529L4.23828 32.5957L4.37528 32.4244C4.44133 32.3419 4.49101 32.2467 4.52149 32.1442C4.55198 32.0417 4.56266 31.934 4.55294 31.8272C4.54322 31.7204 4.51327 31.6167 4.46482 31.5219C4.41638 31.427 4.35037 31.343 4.27057 31.2746Z" fill="white"/>
<path d="M30.3881 18.8401C30.238 18.7892 30.0796 18.7692 29.922 18.7814C29.7643 18.7935 29.6106 18.8376 29.4696 18.911C29.3286 18.9846 29.203 19.0859 29.1 19.2095C28.997 19.3331 28.9187 19.4764 28.8694 19.6313L28.7672 19.9526L28.4556 19.8469C28.1523 19.744 27.8219 19.7695 27.5371 19.9179C27.2522 20.0663 27.0363 20.3253 26.9368 20.638C26.8373 20.9507 26.8624 21.2915 27.0064 21.5854C27.1506 21.8792 27.4019 22.1021 27.7052 22.205L28.0168 22.3107L30.3039 23.0865L31.0543 20.7284L31.1565 20.4071C31.2059 20.2523 31.2251 20.0889 31.2132 19.9264C31.2012 19.7638 31.1583 19.6052 31.087 19.4597C31.0156 19.3142 30.9172 19.1846 30.7973 19.0782C30.6774 18.9719 30.5384 18.891 30.3881 18.8401Z" fill="white"/>
<path d="M39.1497 28.217C39.0947 28.076 39.0134 27.9476 38.9103 27.8392C38.8073 27.7308 38.6845 27.6446 38.5491 27.5853C38.4136 27.5261 38.2681 27.4951 38.1208 27.4941C37.9736 27.4931 37.8275 27.522 37.691 27.5793L37.4076 27.6981L37.2935 27.4055C37.1825 27.1208 36.9665 26.8936 36.6929 26.774C36.4193 26.6544 36.1107 26.6522 35.8349 26.7679C35.5591 26.8835 35.3387 27.1076 35.2221 27.3908C35.1056 27.674 35.1025 27.993 35.2136 28.2778L35.3276 28.5704L36.1649 30.7181L38.2449 29.8458L38.5283 29.7269C38.6649 29.6697 38.7893 29.5852 38.8945 29.4783C38.9996 29.3715 39.0834 29.2443 39.1411 29.104C39.1988 28.9639 39.2293 28.8133 39.2308 28.6611C39.2322 28.5089 39.2046 28.358 39.1497 28.217Z" fill="white"/>
<path d="M34.8781 19.5706C34.8782 19.4826 34.8613 19.3955 34.8287 19.3142C34.7961 19.2329 34.7482 19.1591 34.6878 19.0969C34.6275 19.0347 34.5558 18.9853 34.477 18.9517C34.3981 18.9181 34.3136 18.9007 34.2282 18.9007L34.0511 18.9008V18.7182C34.0512 18.5406 33.9827 18.3702 33.8608 18.2446C33.739 18.1189 33.5737 18.0484 33.4013 18.0484C33.2289 18.0484 33.0636 18.119 32.9417 18.2447C32.8198 18.3703 32.7513 18.5407 32.7513 18.7183L32.7513 18.9008L32.7512 20.2407L34.051 20.2406L34.2282 20.2405C34.3135 20.2406 34.398 20.2232 34.4769 20.1896C34.5557 20.1559 34.6274 20.1065 34.6878 20.0443C34.7481 19.9821 34.796 19.9083 34.8286 19.827C34.8613 19.7457 34.8782 19.6586 34.8781 19.5706Z" fill="white"/>
<path d="M32.6715 29.0864C32.674 28.9984 32.6597 28.9109 32.6294 28.8286C32.599 28.7464 32.5532 28.6711 32.4947 28.6072C32.4361 28.5432 32.3659 28.4917 32.288 28.4557C32.2102 28.4197 32.1262 28.3999 32.0409 28.3974L31.8638 28.392L31.869 28.2096C31.874 28.032 31.8104 27.8597 31.6922 27.7304C31.5739 27.6012 31.4106 27.5257 31.2383 27.5205C31.066 27.5154 30.8988 27.581 30.7734 27.7029C30.648 27.8248 30.5747 27.9931 30.5697 28.1707L30.5645 28.3531L30.5265 29.6923L31.8258 29.7312L32.0029 29.7365C32.0882 29.7391 32.1731 29.7243 32.2529 29.693C32.3327 29.6618 32.4057 29.6146 32.4678 29.5542C32.5299 29.4938 32.5798 29.4214 32.6148 29.3412C32.6497 29.2609 32.669 29.1743 32.6715 29.0864Z" fill="white"/>
<path d="M30.3097 33.8948C30.3763 33.9084 30.4447 33.9084 30.5107 33.8946C30.5768 33.8808 30.6394 33.8536 30.6949 33.8145C30.7503 33.7754 30.7976 33.7251 30.8339 33.6667C30.8703 33.6082 30.8951 33.5425 30.9069 33.4735L30.9313 33.3304L31.0696 33.3587C31.2042 33.3863 31.3427 33.3574 31.4547 33.2785C31.5667 33.1994 31.643 33.0768 31.6668 32.9375C31.6906 32.7982 31.66 32.6537 31.5816 32.5357C31.5033 32.4177 31.3836 32.3359 31.249 32.3083L31.1107 32.28L30.0958 32.072L29.9164 33.1224L29.8919 33.2656C29.8801 33.3345 29.8816 33.4055 29.8962 33.4745C29.9108 33.5434 29.9383 33.609 29.9771 33.6674C30.0159 33.7259 30.0652 33.776 30.1223 33.815C30.1794 33.854 30.243 33.8811 30.3097 33.8948Z" fill="white"/>
<path d="M38.4492 34.3297C38.536 34.3132 38.619 34.2791 38.6936 34.2296C38.7681 34.1799 38.8328 34.1157 38.8838 34.0406C38.9349 33.9655 38.9712 33.8809 38.991 33.7918C39.0107 33.7026 39.0133 33.6105 38.9987 33.5208L38.9685 33.3348L39.1484 33.3004C39.3236 33.267 39.4799 33.163 39.583 33.0113C39.686 32.8596 39.7274 32.6726 39.6979 32.4915C39.6685 32.3104 39.5707 32.15 39.426 32.0456C39.2813 31.9412 39.1016 31.9014 38.9265 31.9348L38.7465 31.9692L37.4255 32.2213L37.6476 33.587L37.6778 33.773C37.6923 33.8627 37.7238 33.9482 37.7705 34.0247C37.8172 34.1013 37.878 34.1673 37.9497 34.219C38.0213 34.2706 38.1023 34.3071 38.1881 34.3261C38.2738 34.3451 38.3625 34.3463 38.4492 34.3297Z" fill="white"/>
<path d="M34.3259 12.0925C34.3796 12.0153 34.4181 11.9279 34.4392 11.8351C34.4603 11.7423 34.4637 11.6462 34.449 11.5519C34.4344 11.4577 34.4021 11.3674 34.3539 11.2861C34.3058 11.2047 34.2427 11.134 34.1684 11.0779L34.0141 10.9616L34.1254 10.8015C34.2338 10.6456 34.278 10.4512 34.2485 10.2609C34.2189 10.0707 34.118 9.90018 33.9679 9.78695C33.8178 9.67377 33.6308 9.62706 33.448 9.6572C33.2652 9.68741 33.1017 9.79187 32.9934 9.94776L32.8821 10.1079L32.0652 11.2832L33.1972 12.1369L33.3514 12.2533C33.4258 12.3094 33.5099 12.3497 33.5992 12.372C33.6884 12.3943 33.7808 12.398 33.8713 12.3831C33.9618 12.3682 34.0486 12.3348 34.1266 12.2849C34.2046 12.2351 34.2723 12.1697 34.3259 12.0925Z" fill="white"/>
<path d="M5.66273 16.3591C5.60927 16.4365 5.57106 16.524 5.55019 16.6168C5.52932 16.7096 5.52622 16.8059 5.54115 16.9001C5.55602 16.9942 5.58861 17.0845 5.63697 17.1657C5.68538 17.2468 5.74861 17.3174 5.82309 17.3732L5.97768 17.4891L5.86683 17.6495C5.75892 17.8057 5.71518 18.0003 5.7453 18.1904C5.77537 18.3807 5.87676 18.5508 6.02719 18.6636C6.17763 18.7764 6.36475 18.8225 6.5474 18.7918C6.73011 18.7611 6.89332 18.6561 7.00123 18.4999L7.11208 18.3395L7.92575 17.1618L6.79135 16.3113L6.63676 16.1955C6.56228 16.1396 6.47802 16.0995 6.38877 16.0775C6.29947 16.0555 6.20701 16.052 6.11655 16.0672C6.02609 16.0824 5.93947 16.116 5.86157 16.1661C5.78372 16.2162 5.71613 16.2818 5.66273 16.3591Z" fill="white"/>
<path d="M30.9189 14.3948C30.9817 14.4186 31.0485 14.4295 31.1156 14.4268C31.1827 14.4241 31.2486 14.4079 31.3097 14.3791C31.3709 14.3503 31.426 14.3095 31.4719 14.259C31.5177 14.2085 31.5535 14.1493 31.5772 14.0848L31.6262 13.951L31.7565 14.0004C31.8834 14.0484 32.024 14.0427 32.1474 13.9846C32.2709 13.9265 32.367 13.8207 32.4148 13.6904C32.4626 13.5601 32.458 13.4161 32.4022 13.29C32.3463 13.1639 32.2436 13.0661 32.1168 13.018L31.9865 12.9686L31.0302 12.6062L30.67 13.5886L30.6209 13.7224C30.5972 13.7869 30.5861 13.8555 30.5883 13.9241C30.5904 13.9928 30.6058 14.0603 30.6335 14.1228C30.6611 14.1853 30.7006 14.2414 30.7496 14.288C30.7985 14.3348 30.8561 14.371 30.9189 14.3948Z" fill="white"/>
<path d="M23.6838 5.3869C23.7122 5.29236 23.7222 5.1929 23.7133 5.09422C23.7045 4.99552 23.6769 4.89954 23.6322 4.81174C23.5874 4.72393 23.5264 4.64603 23.4526 4.58249C23.3788 4.51895 23.2937 4.471 23.2021 4.4414L23.012 4.37993L23.0708 4.18375C23.128 3.99282 23.1095 3.78594 23.0191 3.60862C22.9288 3.43131 22.7741 3.29809 22.5891 3.23825C22.4041 3.17843 22.204 3.19689 22.0327 3.28959C21.8614 3.3823 21.733 3.54164 21.6758 3.73257L21.617 3.92875L21.1854 5.36857L22.5804 5.81976L22.7705 5.88119C22.8621 5.91085 22.9584 5.92162 23.0539 5.9128C23.1493 5.90398 23.2421 5.87583 23.3269 5.82993C23.4118 5.78403 23.4869 5.7213 23.5482 5.64525C23.6094 5.56926 23.6555 5.48146 23.6838 5.3869Z" fill="white"/>
<path d="M4.35555 12.8512C4.27165 12.8993 4.19768 12.964 4.13789 13.0417C4.0781 13.1193 4.03365 13.2083 4.00708 13.3036C3.98051 13.3988 3.97235 13.4986 3.98305 13.5971C3.99375 13.6956 4.02312 13.7909 4.06947 13.8775L4.16559 14.0573L3.99151 14.1572C3.82208 14.2543 3.69676 14.417 3.64311 14.6095C3.58945 14.802 3.61187 15.0084 3.70542 15.1835C3.79898 15.3585 3.956 15.4878 4.14196 15.5428C4.32792 15.5979 4.52757 15.5743 4.697 15.4771L4.87108 15.3773L6.14877 14.6447L5.44328 13.3247L5.34714 13.1449C5.30083 13.0582 5.23844 12.9818 5.16354 12.9202C5.08865 12.8585 5.0027 12.8127 4.91062 12.7855C4.81853 12.7582 4.72212 12.75 4.62688 12.7613C4.53164 12.7725 4.43944 12.8031 4.35555 12.8512Z" fill="white"/>
<path d="M0.302859 35.5528C0.303073 35.6518 0.3222 35.7498 0.359149 35.8413C0.396097 35.9328 0.450142 36.016 0.518197 36.0862C0.586251 36.1563 0.666982 36.212 0.755776 36.2501C0.844569 36.2882 0.939686 36.3079 1.0357 36.3081L1.2349 36.3086L1.23539 36.514C1.23587 36.7138 1.31334 36.9056 1.45078 37.0473C1.58821 37.1889 1.77435 37.2688 1.96823 37.2693C2.16211 37.2698 2.34787 37.1909 2.48462 37.0499C2.62138 36.909 2.69795 36.7175 2.69747 36.5176L2.69698 36.3123L2.69338 34.8054L1.2313 34.8016L1.0321 34.8012C0.936091 34.8009 0.841069 34.8201 0.752454 34.8578C0.663839 34.8954 0.583371 34.9507 0.515653 35.0205C0.447932 35.0903 0.394284 35.1732 0.357772 35.2645C0.32126 35.3559 0.3026 35.4538 0.302859 35.5528Z" fill="white"/>
<path d="M16.8471 5.96547C16.8233 6.03205 16.8123 6.10285 16.815 6.17386C16.8175 6.24488 16.8337 6.3147 16.8624 6.37933C16.8912 6.44401 16.9319 6.5022 16.9824 6.55064C17.0328 6.59903 17.092 6.63676 17.1565 6.6616L17.2903 6.71313L17.2408 6.85127C17.1926 6.98572 17.1981 7.13457 17.2562 7.26512C17.3141 7.39568 17.42 7.49717 17.5502 7.54734C17.6805 7.59757 17.8245 7.59227 17.9507 7.53267C18.0769 7.47313 18.1748 7.36412 18.223 7.22967L18.2725 7.09159L18.636 6.07779L17.6538 5.69939L17.52 5.6478C17.4555 5.62296 17.3869 5.61143 17.3182 5.61392C17.2494 5.61646 17.1819 5.63292 17.1195 5.66242C17.057 5.69192 17.0008 5.73386 16.954 5.78588C16.9073 5.8379 16.871 5.8989 16.8471 5.96547Z" fill="white"/>
<path d="M8.21619 19.6987C8.24215 19.7644 8.28047 19.8243 8.32893 19.8749C8.3774 19.9255 8.43501 19.9658 8.49861 19.9936C8.56215 20.0213 8.63033 20.036 8.69934 20.0367C8.7683 20.0374 8.83669 20.0242 8.90055 19.9977L9.03311 19.9428L9.08704 20.0791C9.1395 20.2119 9.2411 20.318 9.36946 20.374C9.49777 20.4301 9.64236 20.4316 9.77141 20.3781C9.90045 20.3247 10.0033 20.2208 10.0575 20.0892C10.1116 19.9575 10.1125 19.809 10.0601 19.6763L10.0061 19.5399L9.61046 18.5391L8.63742 18.9419L8.50486 18.9968C8.44095 19.0232 8.38281 19.0624 8.33372 19.1119C8.28462 19.1615 8.24557 19.2206 8.21876 19.2858C8.19196 19.351 8.17792 19.421 8.1775 19.4918C8.17703 19.5627 8.19022 19.633 8.21619 19.6987Z" fill="white"/>
<path d="M0.84761 26.9031C0.883284 26.9638 0.930249 27.0168 0.985818 27.0589C1.04139 27.101 1.10448 27.1315 1.17148 27.1486C1.23849 27.1658 1.30809 27.1692 1.37631 27.1587C1.44455 27.1482 1.51006 27.1241 1.56912 27.0876L1.69168 27.0119L1.76572 27.1379C1.8378 27.2604 1.9543 27.3487 2.08961 27.3833C2.22492 27.4179 2.36795 27.3959 2.48723 27.3223C2.60652 27.2487 2.69229 27.1293 2.72568 26.9906C2.75907 26.8518 2.73733 26.705 2.66527 26.5825L2.59122 26.4565L2.04774 25.5322L1.1482 26.0876L1.02564 26.1633C0.966564 26.1997 0.915095 26.2478 0.874175 26.3047C0.833256 26.3616 0.803684 26.4263 0.787148 26.495C0.770617 26.5637 0.767447 26.6351 0.777818 26.7052C0.788194 26.7751 0.81191 26.8424 0.84761 26.9031Z" fill="white"/>
<path d="M3.92388 37.404C3.98901 37.427 4.05796 37.4367 4.1268 37.4323C4.19565 37.4279 4.26304 37.4096 4.32511 37.3785C4.38719 37.3474 4.44274 37.3041 4.48859 37.2509C4.53445 37.1978 4.5697 37.136 4.59234 37.069L4.63935 36.93L4.77449 36.9777C4.90602 37.0242 5.05034 37.0151 5.1757 36.9522C5.30108 36.8894 5.39722 36.7781 5.44295 36.6427C5.48873 36.5074 5.48032 36.3591 5.41971 36.2305C5.35906 36.102 5.25107 36.0036 5.11955 35.9571L4.98441 35.9093L3.99254 35.5587L3.64748 36.5793L3.60047 36.7184C3.5778 36.7854 3.56818 36.8563 3.57217 36.927C3.57614 36.9977 3.59365 37.0669 3.62369 37.1306C3.65372 37.1942 3.69569 37.2512 3.7472 37.2981C3.7987 37.345 3.85875 37.381 3.92388 37.404Z" fill="white"/>
<path fill-rule="evenodd" clip-rule="evenodd" d="M16.0529 39.957C17.4346 33.0737 13.6541 32.6385 11.5911 33.2813C5.60363 36.6043 2.95535 35.0615 2.37965 33.8747C3.2912 34.5176 5.80515 35.2989 8.56857 33.2813C11.332 31.2638 13.75 31.155 14.6136 31.3528C13.0429 29.4848 12.0808 29.2895 10.2797 28.9238C9.9353 28.8539 9.56016 28.7778 9.14429 28.6825C2.81141 27.6959 0.460582 22.832 0.0767822 20.5233C1.65999 25.8639 10.0079 27.6441 12.7426 27.7924C14.9303 27.9111 17.2044 29.9187 18.0679 30.9078C20.5147 25.1222 18.9315 20.375 13.6061 19.6333C9.32242 19.0366 7.51396 15.7669 7.14366 13.9223C7.26975 14.3084 8.20699 15.3932 9.14429 16.2212C10.1518 17.1113 12.1668 17.7047 15.3332 18.1498C17.8664 18.8619 19.5552 20.6222 20.0829 21.4134C20.4188 20.1277 20.8313 16.3399 19.7951 11.4741C18.5782 5.76031 19.4514 4.53921 19.746 4.12725C19.765 4.10067 19.7816 4.07745 19.7951 4.05666C20.0829 3.61163 20.8985 2.47426 21.3783 2.12811C21.0905 2.77098 20.4859 4.32367 20.3708 5.39177C20.2557 6.45991 20.6107 8.40822 20.8026 9.24887C20.9177 10.1983 21.906 12.8092 22.3858 13.996C23.5372 12.9576 24.8326 12.6609 28.143 12.2158C30.757 11.8644 31.7163 10.7132 31.8792 10.1604C31.2966 12.225 29.4299 13.551 26.9915 13.551C25.0341 13.551 24.161 14.7377 23.969 15.3311C23.5372 15.6279 23.2494 19.1882 23.2494 21.7101C23.2494 23.7277 22.4817 28.3858 22.0979 30.4627C22.5297 29.2759 24.2281 26.665 27.5673 25.7156C30.9064 24.7661 32.0291 21.5618 32.173 20.0783C32.173 21.7101 31.5973 24.9738 29.1505 26.4573C27.1931 27.6441 25.936 29.1276 25.5522 29.721C26.2719 29.4242 28.4309 29.1572 31.3094 30.4627C36.1863 31.8701 38.6533 30.9641 39.5853 30.0529C37.393 32.7156 34.0901 32.2518 30.3583 31.728C29.3585 31.5875 28.3278 31.4429 27.2794 31.3528C23.1342 30.9967 21.906 36.9406 21.8101 39.957H16.0529Z" fill="white"/>
</g>
<defs>
<clipPath id="clip0_104_1501">
<rect width="40" height="40" fill="white"/>
</clipPath>
</defs>
</svg>
