<svg width="233" height="229" viewBox="0 0 233 229" fill="none" xmlns="http://www.w3.org/2000/svg">
<path fill-rule="evenodd" clip-rule="evenodd" d="M0 228.953H93.8255C101.332 193.184 80.7942 190.923 69.5872 194.263C37.0611 211.531 22.6745 203.514 19.547 197.347C24.4989 200.687 38.1557 204.747 53.1678 194.263C68.1799 183.779 81.3154 183.214 86.0067 184.242C77.4739 174.534 72.2471 173.519 62.4629 171.62C60.592 171.256 58.5545 170.861 56.2953 170.366C21.8926 165.239 9.12192 139.964 7.03691 127.967C15.6376 155.719 60.9866 164.969 75.8423 165.74C87.7268 166.357 100.081 176.79 104.772 181.929C118.064 151.864 109.463 127.196 80.5336 123.342C57.263 120.241 47.4386 103.25 45.4269 93.6647C46.1119 95.671 51.2036 101.308 56.2953 105.611C61.7685 110.237 72.7148 113.32 89.9161 115.633C103.677 119.333 112.851 128.481 115.718 132.592C117.543 125.911 119.784 106.228 114.154 80.9429C107.544 51.2516 112.287 44.9064 113.888 42.7656C113.991 42.6275 114.081 42.5069 114.154 42.3987C115.718 40.086 120.149 34.1759 122.755 32.3772C121.191 35.7177 117.907 43.7863 117.282 49.3366C116.656 54.887 118.585 65.0113 119.628 69.3796C120.253 74.3133 125.622 87.8809 128.228 94.048C134.483 88.6518 141.52 87.11 159.503 84.7973C173.704 82.9712 178.915 76.989 179.8 74.1163C176.635 84.845 166.495 91.7353 153.248 91.7353C142.615 91.7353 137.871 97.9024 136.829 100.986C134.483 102.528 132.919 121.029 132.919 134.134C132.919 144.618 128.749 168.824 126.664 179.616C129.01 173.449 138.236 159.882 156.376 154.948C174.515 150.014 180.614 133.363 181.396 125.654C181.396 134.134 178.268 151.093 164.977 158.802C154.343 164.969 147.515 172.678 145.43 175.762C149.339 174.22 161.067 172.832 176.705 179.616C203.198 186.93 216.599 182.222 221.663 177.487C209.753 191.323 191.811 188.913 171.538 186.191C166.106 185.461 160.507 184.709 154.812 184.242C132.294 182.391 125.622 213.278 125.101 228.953H233V90.1935L116.5 0L0 90.1935V228.953ZM100.089 24.4211C100.857 24.0893 101.683 23.9097 102.521 23.8927C103.358 23.8753 104.191 24.0208 104.971 24.3208C105.751 24.6208 106.463 25.0695 107.066 25.6413C107.67 26.213 108.153 26.8966 108.488 27.653C108.823 28.4094 109.004 29.2238 109.019 30.0496L109.052 31.763L109.295 44.3389L96.5404 44.6011L94.8026 44.6368C93.1112 44.6716 91.4763 44.0425 90.2575 42.8878C89.0388 41.7332 88.336 40.1476 88.3038 38.48C88.2716 36.8123 88.9127 35.1991 90.0859 33.9953C91.2591 32.7915 92.8685 32.0957 94.5598 32.0609L96.2977 32.0252L96.2646 30.3118C96.2484 29.486 96.3975 28.6648 96.7032 27.8953C97.0089 27.1257 97.4652 26.4228 98.0462 25.8267C98.6272 25.2306 99.3214 24.753 100.089 24.4211ZM72.482 89.4994C72.2424 88.7897 71.8631 88.1331 71.3659 87.5671C70.8687 87.0011 70.2633 86.5368 69.5842 86.2007C68.9052 85.8646 68.1658 85.6633 67.4084 85.6084C66.651 85.5534 65.8903 85.6459 65.1699 85.8804L63.675 86.3667L63.1774 84.8943C62.6931 83.4611 61.6506 82.2747 60.2793 81.596C58.908 80.9174 57.3202 80.802 55.8652 81.2753C54.4102 81.7486 53.2072 82.7719 52.5209 84.1199C51.8345 85.468 51.721 87.0304 52.2054 88.4636L52.703 89.936L56.3553 100.743L67.3273 97.174L68.8222 96.6877C69.5427 96.4535 70.209 96.0817 70.7829 95.5937C71.3568 95.1056 71.8271 94.5108 72.167 93.8433C72.5069 93.1758 72.7096 92.4486 72.7637 91.7032C72.8177 90.9579 72.722 90.209 72.482 89.4994ZM75.3271 145.81C75.989 145.795 76.6482 145.91 77.2671 146.147C77.886 146.385 78.4526 146.74 78.9345 147.194C79.4163 147.648 79.8039 148.19 80.0752 148.791C80.3465 149.392 80.4962 150.039 80.5156 150.696C80.535 151.352 80.4239 152.006 80.1885 152.618L79.7003 153.888L76.1176 163.213L66.6922 159.598L65.408 159.105C64.1581 158.625 63.1481 157.674 62.6002 156.461C62.0524 155.247 62.0115 153.871 62.4866 152.634C62.9617 151.398 63.9138 150.402 65.1336 149.867C66.3533 149.332 67.7408 149.3 68.9906 149.78L70.2748 150.273L70.763 149.002C70.9981 148.39 71.3528 147.83 71.807 147.355C72.2611 146.88 72.8058 146.499 73.4098 146.234C74.0138 145.969 74.6653 145.825 75.3271 145.81ZM173.82 58.4139C173.101 58.0651 172.32 57.8595 171.522 57.809C170.724 57.7585 169.924 57.864 169.168 58.1195C168.412 58.375 167.714 58.7756 167.115 59.2982C166.516 59.8209 166.028 60.4555 165.677 61.1656L164.95 62.639L163.459 61.9154C162.007 61.2112 160.334 61.1055 158.807 61.6216C157.28 62.1376 156.024 63.2331 155.316 64.6671C154.608 66.1011 154.505 67.7561 155.031 69.2681C155.557 70.78 156.667 72.0251 158.119 72.7293L159.61 73.4528L170.555 78.7632L175.895 67.9494L176.623 66.4761C176.973 65.7661 177.179 64.9943 177.228 64.2048C177.277 63.4153 177.168 62.6236 176.908 61.8749C176.648 61.1262 176.241 60.4352 175.711 59.8414C175.181 59.2475 174.539 58.7625 173.82 58.4139ZM28.4501 183.016C28.9877 183.18 29.4875 183.448 29.9208 183.804C30.3542 184.159 30.7128 184.596 30.976 185.089C31.2392 185.582 31.4019 186.121 31.4547 186.676C31.5075 187.231 31.4495 187.79 31.2839 188.323C31.1183 188.855 30.8484 189.35 30.4896 189.779L29.7454 190.669L24.283 197.202L17.683 191.785L16.7838 191.047C15.9086 190.329 15.357 189.296 15.2503 188.175C15.1436 187.055 15.4906 185.938 16.215 185.072C16.9393 184.206 17.9817 183.66 19.1128 183.556C20.2438 183.451 21.3709 183.796 22.2462 184.514L23.1454 185.252L23.8896 184.362C24.2482 183.933 24.6887 183.578 25.1859 183.318C25.6831 183.057 26.2273 182.897 26.7873 182.845C27.3474 182.793 27.9124 182.851 28.4501 183.016ZM171.802 119.189C170.986 118.924 170.125 118.82 169.269 118.884C168.413 118.947 167.578 119.176 166.812 119.558C166.046 119.939 165.363 120.466 164.804 121.109C164.244 121.751 163.819 122.495 163.551 123.3L162.996 124.97L161.303 124.42C159.656 123.886 157.861 124.019 156.313 124.79C154.766 125.561 153.593 126.907 153.053 128.532C152.512 130.157 152.648 131.927 153.431 133.454C154.214 134.981 155.579 136.14 157.227 136.674L158.919 137.224L171.344 141.255L175.42 129.001L175.976 127.332C176.244 126.527 176.348 125.678 176.283 124.834C176.219 123.989 175.986 123.165 175.598 122.409C175.21 121.652 174.676 120.979 174.024 120.427C173.373 119.874 172.618 119.454 171.802 119.189ZM218.097 165.952C218.657 166.515 219.099 167.182 219.397 167.915C219.696 168.648 219.846 169.432 219.838 170.223C219.83 171.014 219.665 171.796 219.351 172.525C219.038 173.253 218.582 173.914 218.011 174.47C217.44 175.025 216.764 175.464 216.022 175.761L214.482 176.379L203.183 180.912L198.634 169.752L198.015 168.231C197.412 166.751 197.428 165.093 198.061 163.622C198.694 162.15 199.892 160.986 201.39 160.385C202.889 159.784 204.565 159.795 206.051 160.417C207.537 161.038 208.711 162.219 209.314 163.699L209.934 165.219L211.473 164.602C212.215 164.304 213.009 164.153 213.809 164.159C214.608 164.164 215.399 164.325 216.135 164.633C216.87 164.94 217.537 165.389 218.097 165.952ZM196.193 122.985C196.193 122.527 196.102 122.075 195.924 121.652C195.747 121.23 195.487 120.846 195.159 120.523C194.831 120.2 194.442 119.943 194.014 119.769C193.585 119.594 193.126 119.504 192.662 119.504L191.7 119.504L191.7 118.555C191.7 117.632 191.329 116.747 190.666 116.094C190.004 115.441 189.106 115.075 188.17 115.075C187.234 115.075 186.336 115.442 185.673 116.094C185.011 116.747 184.639 117.633 184.639 118.556L184.639 119.505L184.638 126.467L191.7 126.466L192.662 126.466C193.126 126.466 193.585 126.376 194.013 126.201C194.442 126.026 194.831 125.77 195.159 125.446C195.487 125.123 195.747 124.739 195.924 124.317C196.102 123.895 196.193 123.442 196.193 122.985ZM183.977 171.094C184.142 171.521 184.219 171.976 184.206 172.433C184.192 172.89 184.088 173.34 183.898 173.757C183.708 174.174 183.437 174.55 183.099 174.864C182.762 175.178 182.365 175.423 181.932 175.585C181.498 175.748 181.037 175.825 180.573 175.811L179.612 175.784L172.553 175.582L172.76 168.623L172.788 167.675C172.815 166.752 173.213 165.877 173.895 165.244C174.576 164.61 175.484 164.269 176.42 164.296C177.356 164.323 178.243 164.715 178.885 165.387C179.528 166.058 179.874 166.954 179.846 167.877L179.818 168.825L180.78 168.852C181.243 168.866 181.699 168.969 182.123 169.156C182.546 169.343 182.927 169.61 183.245 169.943C183.563 170.275 183.812 170.666 183.977 171.094ZM171.375 197.419C171.737 197.49 172.108 197.49 172.467 197.419C172.826 197.347 173.166 197.206 173.468 197.002C173.769 196.799 174.026 196.538 174.223 196.234C174.421 195.93 174.556 195.589 174.619 195.23L174.752 194.487L175.503 194.634C176.235 194.777 176.987 194.627 177.596 194.217C178.204 193.806 178.618 193.169 178.748 192.445C178.877 191.721 178.71 190.97 178.285 190.357C177.859 189.744 177.209 189.319 176.478 189.175L175.727 189.028L170.213 187.947L169.239 193.406L169.106 194.15C169.042 194.508 169.05 194.877 169.129 195.235C169.208 195.594 169.358 195.934 169.568 196.238C169.779 196.542 170.047 196.802 170.357 197.005C170.667 197.208 171.013 197.348 171.375 197.419ZM216.92 199.159C216.515 199.417 216.064 199.594 215.593 199.68C215.122 199.766 214.64 199.759 214.174 199.661C213.708 199.562 213.268 199.373 212.879 199.104C212.49 198.835 212.159 198.492 211.906 198.095C211.652 197.697 211.481 197.253 211.402 196.787L211.238 195.82L210.032 188.724L217.208 187.413L218.185 187.235C219.137 187.061 220.113 187.268 220.899 187.811C221.685 188.353 222.216 189.187 222.376 190.128C222.536 191.069 222.312 192.04 221.752 192.829C221.192 193.617 220.343 194.157 219.391 194.331L218.414 194.51L218.578 195.476C218.657 195.942 218.643 196.421 218.536 196.884C218.429 197.348 218.231 197.787 217.954 198.177C217.677 198.568 217.326 198.901 216.92 199.159ZM193.194 84.1253C193.485 83.7243 193.694 83.2699 193.809 82.7879C193.924 82.3059 193.942 81.8058 193.862 81.3162C193.783 80.8266 193.607 80.3571 193.346 79.9345C193.084 79.512 192.741 79.1445 192.338 78.8533L191.5 78.2488L192.104 77.4167C192.693 76.6068 192.933 75.5964 192.773 74.6077C192.612 73.619 192.064 72.733 191.248 72.1447C190.433 71.5564 189.417 71.3139 188.424 71.4706C187.432 71.6273 186.543 72.1703 185.955 72.9802L185.35 73.8123L180.912 79.9198L187.062 84.3563L187.9 84.9608C188.304 85.2522 188.761 85.4618 189.245 85.5775C189.73 85.6932 190.232 85.7129 190.724 85.6353C191.216 85.5577 191.687 85.3844 192.11 85.1253C192.534 84.8662 192.902 84.5264 193.194 84.1253ZM36.8723 107.636C36.9857 107.153 37.1934 106.698 37.4838 106.297C37.7739 105.895 38.141 105.554 38.564 105.294C38.9869 105.033 39.4576 104.859 39.9489 104.78C40.4403 104.701 40.9428 104.719 41.4277 104.833C41.9127 104.948 42.3705 105.156 42.7751 105.446L43.6147 106.048L49.7773 110.468L45.3572 116.588L44.7549 117.421C44.1688 118.233 43.282 118.778 42.2897 118.938C41.2974 119.097 40.2808 118.858 39.4636 118.272C38.6464 117.686 38.0955 116.801 37.9321 115.813C37.7688 114.825 38.0063 113.814 38.5924 113.002L39.1946 112.168L38.355 111.566C37.9503 111.276 37.6067 110.91 37.3438 110.488C37.081 110.066 36.9041 109.597 36.8232 109.108C36.7423 108.618 36.759 108.118 36.8723 107.636ZM174.685 96.0887C175.026 96.2125 175.389 96.269 175.753 96.255C176.117 96.241 176.476 96.1568 176.808 96.0073C177.14 95.8577 177.439 95.6457 177.689 95.3833C177.938 95.1209 178.132 94.8133 178.261 94.478L178.527 93.7825L179.235 94.0391C179.924 94.2889 180.688 94.2595 181.358 93.9574C182.029 93.6553 182.552 93.1053 182.811 92.4284C183.071 91.7515 183.046 91.0031 182.742 90.3478C182.439 89.6925 181.881 89.1841 181.192 88.9344L180.484 88.6778L175.289 86.7944L173.332 91.8992L173.066 92.5947C172.937 92.9299 172.877 93.2861 172.889 93.6432C172.9 94.0002 172.984 94.3509 173.134 94.6754C173.285 94.9999 173.499 95.2917 173.765 95.5342C174.031 95.7767 174.343 95.9651 174.685 96.0887ZM135.542 47.7591C135.59 48.2719 135.535 48.7887 135.381 49.28C135.227 49.7713 134.977 50.2275 134.644 50.6226C134.312 51.0176 133.903 51.3437 133.443 51.5822C132.982 51.8208 132.478 51.9671 131.959 52.0128C131.44 52.0585 130.917 52.0028 130.42 51.8487L129.387 51.5293L121.809 49.1847L124.154 41.7028L124.473 40.6834C124.784 39.6912 125.481 38.8632 126.412 38.3815C127.342 37.8997 128.43 37.8038 129.434 38.1147C130.439 38.4256 131.28 39.1179 131.77 40.0393C132.261 40.9607 132.362 42.0357 132.051 43.0279L131.732 44.0473L132.764 44.3667C133.262 44.5206 133.725 44.7697 134.125 45.0999C134.526 45.4301 134.858 45.8349 135.101 46.2912C135.344 46.7475 135.494 47.2462 135.542 47.7591ZM30.3826 88.068C29.9268 88.3179 29.525 88.654 29.2002 89.0573C28.8754 89.4606 28.6339 89.9231 28.4896 90.4183C28.3453 90.9136 28.3009 91.4319 28.3591 91.9437C28.4172 92.4554 28.5767 92.9506 28.8285 93.401L29.3507 94.3355L28.405 94.8542C27.4846 95.359 26.8038 96.2045 26.5123 97.2046C26.2209 98.2048 26.3427 99.2776 26.8509 100.187C27.3591 101.097 28.2121 101.768 29.2223 102.055C30.2325 102.341 31.3171 102.218 32.2375 101.713L33.1832 101.194L40.124 97.3873L36.2915 90.5284L35.7693 89.5939C35.5177 89.1435 35.1788 88.7467 34.7719 88.4262C34.3651 88.1057 33.8982 87.8678 33.3979 87.7261C32.8977 87.5844 32.3739 87.5416 31.8566 87.6003C31.3392 87.659 30.8383 87.8179 30.3826 88.068ZM8.67298 207.534C8.47226 207.059 8.36835 206.549 8.36719 206.035C8.36579 205.521 8.46715 205.012 8.6655 204.537C8.86385 204.063 9.15529 203.632 9.52317 203.269C9.89106 202.906 10.3282 202.619 10.8096 202.424C11.2909 202.228 11.8072 202.128 12.3287 202.129L13.4109 202.132L21.3534 202.151L21.373 209.982L21.3756 211.049C21.3782 212.088 20.9623 213.082 20.2194 213.815C19.4764 214.547 18.4674 214.957 17.4141 214.955C16.3609 214.952 15.3497 214.537 14.6031 213.801C13.8565 213.065 13.4357 212.068 13.4331 211.03L13.4304 209.963L12.3482 209.96C11.8267 209.959 11.31 209.857 10.8276 209.659C10.3453 209.461 9.90669 209.171 9.53699 208.807C9.16729 208.442 8.8737 208.01 8.67298 207.534ZM98.2419 52.2866C98.1121 52.6325 98.0527 53.0004 98.0669 53.3694C98.0812 53.7384 98.1689 54.1013 98.3249 54.4372C98.481 54.7731 98.7024 55.0755 98.9765 55.3272C99.2507 55.5788 99.5721 55.7747 99.9225 55.9038L100.649 56.1717L100.38 56.8895C100.119 57.5881 100.149 58.3616 100.464 59.04C100.779 59.7183 101.354 60.2459 102.061 60.5067C102.769 60.7675 103.551 60.7401 104.237 60.4305C104.922 60.1209 105.454 59.5545 105.716 58.8559L105.985 58.1382L107.96 52.8701L102.624 50.9037L101.897 50.6358C101.547 50.5065 101.174 50.4468 100.801 50.4598C100.427 50.4728 100.061 50.5585 99.7212 50.7118C99.3818 50.8651 99.0764 51.083 98.8226 51.3532C98.5688 51.6235 98.3714 51.9406 98.2419 52.2866ZM51.9677 124.566C51.7044 124.303 51.4964 123.992 51.3553 123.65C51.2141 123.309 51.1426 122.943 51.145 122.575C51.1473 122.207 51.2235 121.843 51.3691 121.505C51.5148 121.166 51.727 120.859 51.9937 120.601C52.2604 120.344 52.5763 120.14 52.9234 120.003L53.6436 119.718L58.9294 117.624L61.079 122.825L61.3718 123.534C61.6569 124.224 61.6518 124.995 61.3577 125.679C61.0637 126.363 60.5047 126.904 59.8037 127.181C59.1028 127.459 58.3173 127.451 57.6201 127.16C56.9229 126.868 56.3711 126.317 56.086 125.627L55.7932 124.919L55.073 125.204C54.7259 125.342 54.3544 125.41 53.9797 125.407C53.6051 125.403 53.2345 125.327 52.8893 125.183C52.544 125.038 52.2309 124.829 51.9677 124.566ZM11.3259 161.088C11.5197 161.403 11.7749 161.678 12.0767 161.897C12.3786 162.116 12.7213 162.275 13.0853 162.364C13.4493 162.453 13.8274 162.47 14.1981 162.416C14.5687 162.362 14.9246 162.236 15.2454 162.046L15.9112 161.653L16.3135 162.308C16.705 162.944 17.3379 163.403 18.0729 163.583C18.808 163.763 19.585 163.649 20.233 163.266C20.881 162.883 21.3469 162.263 21.5283 161.542C21.7097 160.821 21.5916 160.058 21.2001 159.421L20.7979 158.767L17.8455 153.964L12.9589 156.85L12.2931 157.243C11.9721 157.433 11.6925 157.683 11.4702 157.978C11.2479 158.274 11.0873 158.61 10.9975 158.967C10.9077 159.324 10.8904 159.695 10.9468 160.059C11.0032 160.423 11.132 160.773 11.3259 161.088ZM29.1397 215.802C28.7658 215.825 28.3912 215.775 28.0374 215.655C27.6835 215.535 27.3574 215.348 27.0776 215.104C26.7978 214.861 26.5698 214.565 26.4066 214.234C26.2435 213.903 26.1484 213.544 26.1267 213.176C26.1051 212.809 26.1573 212.44 26.2805 212.092L26.5359 211.37L28.4103 206.066L33.7986 207.888L34.5327 208.136C35.2472 208.378 35.8337 208.889 36.1632 209.557C36.4927 210.225 36.5381 210.996 36.2896 211.699C36.041 212.402 35.5188 212.981 34.8378 213.307C34.1567 213.634 33.3727 213.681 32.6582 213.44L31.9241 213.192L31.6687 213.914C31.5457 214.262 31.3542 214.584 31.1051 214.86C30.856 215.136 30.5543 215.361 30.217 215.523C29.8798 215.684 29.5137 215.779 29.1397 215.802Z" fill="url(#paint0_linear_104_1477)"/>
<defs>
<linearGradient id="paint0_linear_104_1477" x1="0" y1="0" x2="233" y2="229" gradientUnits="userSpaceOnUse">
<stop stop-color="#A4A5A5"/>
<stop offset="0.522178" stop-color="#7EA7BC"/>
<stop offset="1" stop-color="#009FE2"/>
</linearGradient>
</defs>
</svg>
